# xmcd
#
# Track frame offsets:
#   150
#   19430
#   40465
#   57348
#   78318
#   88340
#   103270
#   114808
#   131755
#   146133
#   163063
#
# Disc length: 2372 seconds
#
# Revision: 1
# Processed by: cddbd v1.4PL0 Copyright (c) Steve Scherf et al.
# Submitted via: Media_Universe 3.0
#
DISCID=9e09420b
DTITLE=The Neville Brothers - Hercules
DYEAR=1994
DGENRE=R&B
TTITLE0=Hercules
TTITLE1=Mojo Hannah
TTITLE2=Make me strong
TTITLE3=Wild flower
TTITLE4=Tell me what's on your mind
TTITLE5=Son of a preacher's daughter
TTITLE6=Too late
TTITLE7=People get ready
TTITLE8=Performance
TTITLE9=Struttin' on Sunday
TTITLE10=Baby I'm a want you
EXTD=
EXTT0=
EXTT1=
EXTT2=
EXTT3=
EXTT4=
EXTT5=
EXTT6=
EXTT7=
EXTT8=
EXTT9=
EXTT10=
PLAYORDER=
